<svg viewBox="48.06282722513089 -0.4152415241550216 515.8743455497382 534.415241524155" xmlns="http://www.w3.org/2000/svg" version="1.2" style="max-height: 500px" width="515.8743455497382" height="534.415241524155"><style>.a{fill:#134993}.b{fill:#fefefe}.c{fill:#d12329}.d{fill:#009dd5}.e{fill:#ffdc00}.f{fill:none;stroke:#231f20;stroke-width:2}</style><path d="m98.5 140.6c-18.4-41.9-46.9-67.5-46.9-67.5l91.5-71.1c0 0 72.3 62.5 162.1 0 84 64.5 164.8-1.5 164.8-1.5l90.1 70.8c0 0-31.8 23-50 68.7z" class="a"/><path d="m150.9 59.7h13.3l-10.7 8 4.1 12.8-10.6-7.9-10.7 7.9 4.2-12.8-10.8-8h13.3l4-12.4z" class="b"/><path d="m111.4 88.2h13.3l-10.7 8 4.2 12.8-10.7-7.9-10.6 7.9 4.2-12.8-10.8-8h13.2l4-12.4z" class="b"/><path d="m286.6 40.9h13.3l-10.7 8 4.2 12.8-10.7-7.9-10.6 7.9 4.2-12.8-10.8-8h13.2l4-12.4z" class="b"/><path d="m206.1 69.7h13.3l-10.7 8 4.1 12.7-10.6-7.8-10.7 7.8 4.2-12.7-10.8-8h13.2l4.1-12.5z" class="b"/><path d="m258.6 75.5h13.3l-10.7 8 4.2 12.8-10.7-7.9-10.7 7.9 4.2-12.8-10.8-8h13.3l4-12.4z" class="b"/><path d="m226.9 110.4h13.3l-10.8 8 4.2 12.8-10.7-7.9-10.6 7.9 4.2-12.8-10.8-8h13.2l4-12.4z" class="b"/><path d="m509.4 88.2h13.2l-10.7 8 4.2 12.8-10.7-7.9-10.6 7.9 4.2-12.8-10.8-8h13.2l4-12.4z" class="b"/><path d="m335 40.9h13.3l-10.7 8 4.1 12.8-10.6-7.9-10.7 7.9 4.2-12.8-10.8-8h13.2l4.1-12.4z" class="b"/><path d="m365.9 75.5h13.3l-10.7 8 4.1 12.8-10.6-7.9-10.7 7.9 4.2-12.8-10.8-8h13.3l4-12.4z" class="b"/><path d="m168.7 104.3l13.1 2.3-12 6.1 1.9 13.2-9.1-9.6-11.9 5.9 6.4-11.8-9.3-9.8 13.1 2.3 6.1-11.5z" class="b"/><path d="m452.7 102.9l13.1-2.3-9.2 9.8 6.3 11.8-11.8-5.9-9.2 9.6 1.9-13.3-12-6 13.1-2.3 1.8-12.9z" class="b"/><path d="m311.1 78.2h13.3l-10.7 8 4.2 12.8-10.7-7.9-10.6 7.9 4.2-12.8-10.8-8h13.2l4-12.4z" class="b"/><path d="m340.8 111.7h13.3l-10.7 8 4.2 12.8-10.7-7.9-10.6 7.9 4.2-12.8-10.8-8h13.2l4-12.4z" class="b"/><path d="m285.3 111.7h13.3l-10.7 8 4.2 12.8-10.7-7.9-10.7 7.9 4.2-12.8-10.8-8h13.3l4-12.4z" class="b"/><path d="m396.9 110.4h13.3l-10.7 8 4.2 12.8-10.7-7.9-10.7 7.9 4.2-12.8-10.8-8h13.3l4-12.4z" class="b"/><path d="m416.6 69.7h13.3l-10.7 8 4.1 12.7-10.7-7.8-10.6 7.8 4.2-12.7-10.8-8h13.2l4-12.5z" class="b"/><path d="m467.4 59.7h13.3l-10.8 8 4.2 12.8-10.7-7.9-10.6 7.9 4.2-12.8-10.8-8h13.2l4-12.4z" class="b"/><path d="m307.6 253.6l195.9 0.7c0 0-16.8-59.6 6.6-114.3l-202.5-0.1z" class="a"/><path d="m499.1 178.3h-36.9v-37.4l-40.1 0.1v37.3h-115.3v39.4h115.3v35.3l40.1 1.2v-36.5h35.7c0 0-1.6-25.9 1.2-39.4z" class="b"/><path d="m496.7 183.2h-39.6v-42h-29.7l0.1 42.1-120.8 0.1 0.2 29.2 120.7 0.3v40.3h29.4l0.1-40.3 38.9 0.1c0 0-0.2-18.5 0.7-29.8z" class="c"/><path d="m307.6 253.6h-200.4c0 0 18.9-47.3-8.7-113l209.1-0.7z" class="b"/><path d="m305.8 213.1l-0.1-29.6-123.4 0.1v-41.7h-30.4l-0.2 41.7-40.4 0.1c2.7 17.8 2.1 28.9 2.3 29.3h38l-0.1 39 30.8-0.2v-38.8z" class="d"/><path d="m226.2 493.3c-13.5-5.6-27.6-9.9-44.2-14.8-75.9-22.2-127.8-103.8-84-199.5 3.6-7.9 7-17.7 9.2-25.4h133.6z" class="c"/><path d="m234.1 359l-53.3-5.6-8.6 120.3c-9.6-2.6-41-22.3-41-22.3l7.6-103.2-56.5-5.9c0.3-13.7 7.7-44.7 7.7-44.7l52.1 5.8 3.7-49.5h42.6l-4 54.5 52.9 5.4c0 0-3.2 33.2-3.2 45.2z" class="b"/><path d="m175.3 345.9l-9.2 125.8c0 0-25.9-12.6-29-15.3l7.8-113.8-62.9-6.9c0.7-8.9 5.8-32.7 5.8-32.7l59.9 6.6 4.1-56c-0.6 0 9.2 0.1 30.8 0l-4.8 59.4 58.6 6.4c0 0-2.4 33-2.4 33z" class="a"/><path d="m394.8 488.1c-58.5 20.8-86.8 46.6-87.2 45.9 0 0-30.3-21.1-81.4-40.7l13.4-239.7h132.5l24.5 234.5" class="d"/><path d="m291.6 319.6h-54.1l-1.7 33h55.1l0.1 169.7 16.6 10.7 15.8-10.4 0.8-170h54.3l-2.6-33h-51.7l-0.8-66.1-31.5 0.1z" class="e"/><path d="m386.1 489.8c8.1-2.9 28.1-8.2 37.1-10.9 75.5-22.9 137.2-87.9 88.4-199.2-3.2-8.6-8.1-25.4-8.1-25.4l-131.4-0.7z" class="c"/><path d="m464.4 343.2l8.2 111.4c0 0-10.1 9.2-29.1 17.1l-9.2-125.4-55.8 6.3c0 0-2.5-33-2.6-33l55.9-6.5-4.3-59.1c0-0.1 30.3-0.1 30.3-0.1l4.1 56.1c0 0 57.5-6.5 57.6-6.4 5.3 14.6 7.6 32.4 7.6 32.4z" class="b"/><path d="m51 72.3l91.8-71.3c0 0 72.2 62.5 162.1 0 84 64.4 164.8-1 164.8-1l90.1 70.3c0 0-97.7 72.3-48.9 207 48.9 111.3-11.7 179.7-87.9 201.2-76.1 21.5-115.3 55.2-115.7 54.5 0 0-48.7-34-125.7-55.5-76.9-21.5-127.7-104.5-83.9-200.2 52.8-115.7-46.7-205-46.7-205z" class="f"/><path d="m105.9 253.2h397.3" class="f"/><path d="m226.4 492.8l14.4-239.2" class="f"/><path d="m386.4 490.4l-14.4-237.4" class="f"/><path d="m306.7 253.2v-111.3" class="f"/><path d="m99.7 140.2h408.8" class="f"/></svg>